<svg width="1440" height="948" viewBox="0 0 1440 948" fill="none" xmlns="http://www.w3.org/2000/svg">
<rect y="56.9105" width="1440" height="872.089" fill="#EDF4F2"/>
<path d="M1208.14 312.343C1220.91 301.368 1256.6 289.983 1276.45 308.298C1282.51 313.9 1286.41 319.36 1288.07 324.559C1290.41 331.906 1287.43 336.086 1287.3 336.254L1286.73 337.022L1286.02 336.303C1285.72 336.013 1256.03 306.906 1208.89 313.698L1206.1 314.101L1208.14 312.343ZM1286.48 324.94C1284.91 319.999 1281.16 314.77 1275.32 309.383C1257.25 292.721 1225.4 301.733 1211.52 311.773C1253.5 306.959 1281.32 329.918 1286.38 334.503C1287.03 333.041 1288.02 329.733 1286.48 324.94Z" fill="#5D3311" fill-opacity="0.12"/>
<path d="M1134.44 264.881C1139.22 251.943 1160.38 230.493 1182.15 237.301C1188.8 239.387 1193.83 242.144 1197.14 245.495C1201.8 250.259 1201.34 254.506 1201.32 254.67L1201.22 255.46L1200.42 255.186C1200.09 255.058 1166.83 243.573 1135.53 265.641L1133.68 266.948L1134.44 264.881ZM1196.14 246.363C1193.01 243.181 1188.17 240.551 1181.77 238.542C1161.96 232.34 1142.61 250.622 1136.65 263.224C1165.02 244.511 1194.42 252.005 1199.94 253.677C1199.82 252.339 1199.19 249.472 1196.14 246.363Z" fill="#5D3311" fill-opacity="0.12"/>
<path d="M1159.4 223.834L1160.17 221.294C1173.09 178.514 1145.88 147.515 1145.6 147.206L1144.93 146.462L1145.82 146.033C1146.02 145.94 1150.8 143.674 1158.3 146.747C1163.61 148.91 1168.92 153.182 1174.11 159.466C1191.08 180.052 1174.69 211.679 1161.51 222.155L1159.4 223.834ZM1147.57 147.1C1151.8 152.347 1172.74 180.846 1162.53 219.106C1174.84 207.477 1188.26 179.105 1172.82 160.374C1167.82 154.332 1162.73 150.224 1157.71 148.161C1152.8 146.161 1149.19 146.67 1147.57 147.1Z" fill="#5D3311" fill-opacity="0.12"/>
<path d="M907.141 847.56L907.911 845.028C920.829 802.243 893.625 771.244 893.341 770.935L892.672 770.188L893.557 769.759C893.754 769.666 898.536 767.406 906.035 770.474C911.345 772.637 916.654 776.909 921.84 783.198C938.818 803.778 922.428 835.405 909.251 845.881L907.141 847.56ZM895.306 770.82C899.532 776.07 920.476 804.572 910.267 842.824C922.578 831.195 935.999 802.836 920.548 784.097C915.547 778.056 910.46 773.944 905.432 771.881C900.544 769.885 896.927 770.396 895.306 770.82Z" fill="#5D3311" fill-opacity="0.12"/>
<path d="M1050.15 520.613L1051.71 521.22C1056.23 509.848 1067.83 499.677 1081.97 494.678C1094.65 490.195 1107.58 490.467 1118.38 495.418C1132.89 502.1 1138.28 519.819 1134.05 531.562C1130.55 541.267 1121.48 545.195 1109.81 542.083C1102.11 540.023 1097.38 535.3 1096.81 529.118C1096.33 523.797 1099.27 518.614 1103.64 517.079C1107.74 515.647 1112.37 517.525 1116.67 522.383L1117.93 521.422C1111.44 514.094 1105.79 514.64 1103 515.614C1097.91 517.403 1094.61 523.113 1095.16 529.176C1095.46 532.436 1097.44 540.371 1109.43 543.578C1122.04 546.935 1131.81 542.665 1135.62 532.132C1140.18 519.507 1134.6 501.182 1119.04 494.03C1107.82 488.884 1094.43 488.586 1081.32 493.219C1066.76 498.353 1054.82 508.851 1050.15 520.613Z" fill="#5D3311" fill-opacity="0.12"/>
<path d="M1121.03 520.061C1123.68 520.826 1125.27 523.462 1124.58 525.918C1123.89 528.381 1121.18 529.754 1118.52 528.981C1115.87 528.202 1114.27 525.574 1114.96 523.115C1115.65 520.658 1118.37 519.288 1121.03 520.061ZM1120.6 521.544C1118.83 521.022 1117.02 521.935 1116.56 523.58C1116.1 525.231 1117.17 526.977 1118.94 527.49C1120.71 528.005 1122.52 527.087 1122.98 525.45C1123.45 523.811 1122.37 522.054 1120.6 521.544Z" fill="#5D3311" fill-opacity="0.12"/>
<path d="M1066.68 495.034L1065.21 493.535C1077.27 483.13 1084.58 465.194 1084.28 446.719C1084.01 430.17 1077.72 415.511 1066.6 405.452C1051.62 391.936 1027.1 393.936 1014.45 404.178C1003.99 412.642 1003.27 424.816 1012.53 436.731C1018.63 444.576 1026.68 447.814 1034.62 445.618C1041.47 443.72 1046.55 437.976 1046.45 432.269C1046.35 426.917 1041.89 422.489 1033.86 419.804L1034.48 417.938C1046.58 421.984 1048.5 428.701 1048.57 432.33C1048.7 438.962 1043.11 445.367 1035.32 447.531C1031.13 448.687 1020.35 450.07 1010.85 437.849C1000.87 424.993 1001.67 411.837 1013.02 402.641C1026.64 391.623 1051.97 389.559 1068.02 404.052C1079.6 414.506 1086.12 429.678 1086.41 446.789C1086.7 465.794 1079.15 484.273 1066.68 495.034Z" fill="#5D3311" fill-opacity="0.12"/>
<path d="M1033.72 422.107C1030.99 424.024 1026.97 423.409 1024.79 420.734C1022.6 418.045 1023.06 414.308 1025.8 412.385C1028.54 410.457 1032.56 411.075 1034.74 413.749C1036.92 416.436 1036.47 420.187 1033.72 422.107ZM1027.12 414.016C1025.29 415.287 1024.98 417.785 1026.44 419.579C1027.89 421.367 1030.57 421.774 1032.4 420.487C1034.23 419.199 1034.53 416.717 1033.08 414.924C1031.63 413.133 1028.95 412.723 1027.12 414.016Z" fill="#5D3311" fill-opacity="0.12"/>
<path d="M1319.97 87.4044C1247.58 121.713 1185.25 180.046 1137.67 258.713C1084.68 346.303 1054.58 454.716 1055.07 556.133C1055.83 713.75 969.511 828.386 909.252 884.416L910.83 885.17C971.293 828.775 1057.48 713.909 1056.72 556.203C1055.86 381.788 1148.18 170.298 1321.92 88.335L1319.97 87.4044Z" fill="#5D3311" fill-opacity="0.12"/>
<path d="M1293.06 74.5997C1297.96 188.468 1296.22 320.389 1191.45 386.444C1131.52 424.223 1088.87 456.554 1061.47 500.903C1034.26 544.97 1021.81 600.658 1019.93 687.08C1017.12 815.896 983.125 885.459 966.622 911.826L968.121 912.542C971.182 907.632 974.817 901.306 978.754 893.372C996.217 858.187 1019.28 792.316 1021.58 687.186C1025.43 511.164 1076.59 460.751 1192.41 387.736C1243.24 355.71 1274.48 306.176 1287.94 236.339C1297.85 184.891 1297 128.134 1294.74 75.3998L1293.06 74.5997Z" fill="#5D3311" fill-opacity="0.12"/>
<path d="M1069.35 337.828C1067.3 341.947 1062.94 344.466 1057.68 344.557C1049.23 344.703 1039.76 338.817 1030.82 328.131C1038.29 342.736 1036.79 350.741 1034.93 354.479C1033.04 358.285 1029.4 360.583 1024.97 360.77C1019.87 360.978 1014.73 358.418 1011.56 354.083C1008.91 350.469 1005.41 342.502 1011.75 329.77C1012.43 328.405 1013.21 327.018 1014.09 325.611C1000.17 338.439 991.034 334.745 988.305 333.071C982.434 329.506 980.187 321.54 983.296 315.295C986.458 308.943 995.245 304.814 1010.81 309.931C997.101 301.101 994.999 291.785 998.16 285.433C1001.26 279.204 1009.06 276.022 1015.55 278.325C1018.58 279.4 1027.18 284.162 1025.45 302.805C1026.03 301.269 1026.66 299.813 1027.35 298.436C1034.74 283.584 1046.46 280.928 1054.79 284.892C1060.58 287.653 1064.91 294.242 1061.54 301.034C1061.53 301.045 1061.53 301.045 1061.53 301.045C1059.67 304.783 1054.15 310.876 1037.79 314.129C1051.9 314.397 1062.48 318.083 1067.57 324.678C1070.74 328.796 1071.4 333.709 1069.35 337.828ZM1025.28 318.664C1035.72 334.574 1047.49 343.604 1057.6 343.431C1062.4 343.354 1066.39 341.063 1068.26 337.314C1070.12 333.564 1069.51 329.083 1066.6 325.332C1060.52 317.441 1045.99 313.934 1026.75 315.709L1026.58 314.588C1051.08 312.328 1058.31 304.82 1060.43 300.55C1060.43 300.55 1060.43 300.55 1060.44 300.539C1063.52 294.341 1059.67 288.488 1054.28 285.919C1046.5 282.214 1035.49 284.812 1028.44 298.976C1026.56 302.748 1025.03 307.224 1023.89 312.249L1022.72 311.959C1026.64 294.65 1023.82 282.479 1015.18 279.387C1009.35 277.317 1002.05 280.329 999.25 285.959C995.779 292.932 999.304 303.833 1019.6 313.498L1019.09 314.505C998.802 304.84 987.856 308.848 984.385 315.821C981.577 321.462 983.659 328.94 988.92 332.153C996.738 336.901 1008.26 331.574 1019.76 317.891L1020.72 318.618C1017.38 322.597 1014.72 326.527 1012.85 330.299C1006.76 342.533 1010.04 350.085 1012.53 353.489C1015.47 357.482 1020.18 359.852 1024.86 359.658C1028.86 359.479 1032.13 357.404 1033.84 353.973C1035.97 349.697 1037.56 339.501 1024.27 319.233L1025.28 318.664Z" fill="#5D3311" fill-opacity="0.12"/>
<path d="M1082.86 862.581C1082.7 866.251 1080.36 869.346 1076.61 870.899C1070.6 873.375 1061.93 871.635 1052.12 866.135C1062.11 874.966 1063.59 881.383 1063.44 884.707C1063.28 888.078 1061.4 890.819 1058.28 892.206C1054.69 893.798 1050.18 893.329 1046.53 890.969C1043.48 889.011 1038.44 884.028 1038.95 872.722C1039 871.499 1039.12 870.246 1039.31 868.958C1033.38 882.461 1025.64 882.257 1023.16 881.767C1017.81 880.752 1013.67 875.419 1013.92 869.881C1014.17 864.242 1019.18 858.69 1031.96 858.142C1019.32 855.386 1014.86 849.003 1015.11 843.369C1015.36 837.837 1019.95 833.261 1025.34 833.166C1027.85 833.123 1035.55 834.272 1040.21 848.714C1040.15 847.394 1040.14 846.125 1040.21 844.908C1040.8 831.717 1048.36 826.448 1055.61 827.077C1060.64 827.519 1065.84 831.229 1065.57 837.255C1065.57 837.266 1065.57 837.266 1065.57 837.266C1065.43 840.581 1063.39 846.694 1052.68 853.719C1062.89 849.968 1071.66 849.753 1077.4 853.252C1080.99 855.437 1083.03 858.922 1082.86 862.581ZM1045.14 860.614C1057.68 869.6 1068.99 873.039 1076.19 870.081C1079.61 868.673 1081.75 865.829 1081.91 862.508C1082.05 859.176 1080.19 856 1076.92 854C1070.04 849.805 1058.5 851.257 1045.25 857.981L1044.77 857.199C1061.64 848.63 1064.44 840.984 1064.63 837.187C1064.63 837.187 1064.63 837.187 1064.62 837.176C1064.86 831.672 1060.26 828.37 1055.56 827.961C1048.79 827.368 1041.71 832.415 1041.15 844.99C1041 848.339 1041.31 852.118 1042.08 856.196L1041.16 856.309C1038.48 842.259 1032.6 833.944 1025.4 834.061C1020.55 834.14 1016.27 838.445 1016.05 843.445C1015.77 849.639 1021.76 856.8 1039.39 858.336L1039.36 859.235C1021.72 857.687 1015.13 863.756 1014.86 869.962C1014.63 874.962 1018.5 879.984 1023.3 880.901C1030.42 882.264 1037 875.039 1040.93 861.58L1041.84 861.855C1040.7 865.771 1040.05 869.456 1039.9 872.806C1039.4 883.661 1044.15 888.398 1047.04 890.243C1050.41 892.417 1054.55 892.86 1057.85 891.402C1060.65 890.149 1062.36 887.679 1062.48 884.631C1062.66 880.831 1060.57 872.751 1044.59 861.322L1045.14 860.614Z" fill="#5D3311" fill-opacity="0.12"/>
<path d="M1512.59 93.9803C1511.32 124.309 1501.24 165.804 1464.61 206.888C1453.1 219.811 1443.79 227.136 1436.44 231.069C1437.78 233.124 1439.15 235.394 1440.6 237.904C1479.4 305.452 1458.88 418.264 1384.3 547.398C1367.85 575.878 1359.39 599.774 1356.52 619.17C1397 604.428 1413.88 619.987 1418.87 626.553C1430.24 641.512 1427.29 664.889 1412.56 676.551C1400.07 686.441 1382.69 686.108 1370.28 675.755C1358.74 666.144 1351.44 648.024 1354.86 621.228C1342.38 626.008 1327.67 633.671 1310.37 645.333C1248.92 686.752 1221.73 734.685 1209.76 767.557C1200.84 792.053 1197.98 814.353 1198.44 832.146L1197.04 831.328C1196.69 813.511 1199.63 791.359 1208.46 767.102C1220.51 733.996 1247.83 685.833 1309.59 644.198C1327.28 632.277 1342.32 624.505 1355.07 619.703C1357.85 599.979 1366.36 575.673 1383.08 546.72C1457.42 418 1477.94 305.681 1439.38 238.563C1437.93 236.025 1436.53 233.746 1435.2 231.709C1426.18 236.196 1420.24 235.485 1416.74 233.991C1410.52 231.312 1408.22 224.808 1408.73 219.901C1409.15 215.97 1411.22 213.275 1414.24 212.657C1417.72 211.951 1424.8 213.56 1435.71 229.961C1442.89 226.132 1452.05 218.9 1463.57 205.993C1500.23 164.869 1510.12 123.346 1511.25 93.1933L1512.59 93.9803ZM1356.31 620.68C1352.73 647.318 1359.83 665.261 1371.18 674.72C1383.08 684.643 1399.74 684.957 1411.68 675.498C1414.63 673.165 1417.07 670.308 1419.01 667.117C1426.24 655.171 1426.26 638.528 1417.77 627.356C1412.91 620.963 1396.38 605.821 1356.31 620.68ZM1414.52 213.981C1412.11 214.48 1410.46 216.747 1410.12 220.035C1409.66 224.464 1411.71 230.342 1417.3 232.736C1420.54 234.12 1426.05 234.77 1434.48 230.595C1423.66 214.337 1417.05 213.474 1414.52 213.981Z" fill="#5D3311" fill-opacity="0.12"/>
</svg>
