<svg width="25" height="25" viewBox="0 0 25 25" fill="none" xmlns="http://www.w3.org/2000/svg">
<circle cx="12.5" cy="12.5" r="12.5" fill="white"/>
<path d="M11.9531 19.0784C11.8099 18.9219 11.7349 18.7227 11.7281 18.4809C11.7214 18.239 11.7898 18.0399 11.9336 17.8834L15.7617 13.7008H7.03125C6.80989 13.7008 6.62422 13.6189 6.47422 13.455C6.32422 13.2911 6.24948 13.0885 6.25 12.8472C6.25 12.6054 6.325 12.4025 6.475 12.2386C6.625 12.0747 6.81042 11.9931 7.03125 11.9936H15.7617L11.9336 7.81105C11.7904 7.65456 11.7219 7.45538 11.7281 7.21353C11.7344 6.97168 11.8094 6.77251 11.9531 6.61602C12.0964 6.45953 12.2786 6.38129 12.5 6.38129C12.7214 6.38129 12.9036 6.45953 13.0469 6.61602L18.2031 12.2497C18.2812 12.3208 18.3367 12.4099 18.3695 12.5169C18.4023 12.6239 18.4185 12.734 18.418 12.8472C18.418 12.961 18.4018 13.0677 18.3695 13.1673C18.3372 13.2669 18.2818 13.3594 18.2031 13.4447L13.0469 19.0784C12.9036 19.2349 12.7214 19.3131 12.5 19.3131C12.2786 19.3131 12.0964 19.2349 11.9531 19.0784Z" fill="#AC3225"/>
</svg>
